<svg id="Layer_1" data-name="Layer 1" xmlns="http://www.w3.org/2000/svg" viewBox="0 0 90 90"><defs><style>.cls-1{fill:#0093d1;}</style></defs><title>FINAL ICON SET</title><g id="_27" data-name="27"><path class="cls-1" d="M79.75,89.71a2.82,2.82,0,0,1-2-.83L53.93,65.2a2.8,2.8,0,0,1-.83-2,2.76,2.76,0,0,1,.84-2l7.42-7.38a2.84,2.84,0,0,1,4,0L89.17,77.52a2.81,2.81,0,0,1,0,4h0L81.74,88.9A2.82,2.82,0,0,1,79.75,89.71ZM63.34,55a0.81,0.81,0,0,0-.58.24l-7.42,7.39a0.78,0.78,0,0,0-.24.56,0.81,0.81,0,0,0,.24.58L79.17,87.47a0.83,0.83,0,0,0,1.17,0l7.43-7.39a0.81,0.81,0,0,0,0-1.15L63.94,55.26A0.85,0.85,0,0,0,63.34,55ZM88.47,80.8h0ZM33.65,67.58A33.65,33.65,0,1,1,67.29,33.93,33.68,33.68,0,0,1,33.65,67.58Zm0-65.29A31.65,31.65,0,1,0,65.29,33.93,31.68,31.68,0,0,0,33.65,2.29Zm0,57.64a26.14,26.14,0,0,1-18.48-7.6h0a25.9,25.9,0,0,1,0-36.78,26.29,26.29,0,0,1,37,0,25.91,25.91,0,0,1,0,36.79A26.16,26.16,0,0,1,33.63,59.93Zm-17.07-9a24.29,24.29,0,0,0,34.16,0,23.91,23.91,0,0,0,0-34,24.29,24.29,0,0,0-34.16,0,23.9,23.9,0,0,0,0,33.94h0Z"/></g></svg>